/* XPM */
static char *p32[] = {
/* columns rows colors chars-per-pixel */
"32 32 257 2",
"   c #D83729",
".  c #3CB521",
"X  c #484949",
"o  c #38098E",
"O  c #EBEB5A",
"+  c #FFD8CB",
"@  c #ABAB35",
"#  c #878923",
"$  c #CECE3B",
"%  c #6437BA",
"&  c #959552",
"*  c #48C02E",
"=  c #BCBC2A",
"-  c #5CC246",
";  c #551DC0",
":  c #9A4D46",
">  c #A6281E",
",  c #B1B01F",
"<  c #8369B5",
"1  c #E8E83E",
"2  c #46BD2C",
"3  c #CCCC3C",
"4  c #F95849",
"5  c #D7473B",
"6  c #430CAE",
"7  c #D1D13C",
"8  c #B42518",
"9  c #4D14BA",
"0  c #E53B2B",
"q  c #4DC433",
"w  c #C42213",
"e  c #9B352B",
"r  c #BBBB26",
"t  c #4DBC35",
"y  c #74130B",
"u  c #C1C12A",
"i  c #B53126",
"p  c #FF8B7C",
"a  c #787A18",
"s  c #D62919",
"d  c #575165",
"f  c #93952B",
"g  c #480EB5",
"h  c #1B3A19",
"j  c #1A1B04",
"k  c #F44B3B",
"l  c #B8B838",
"z  c #72D859",
"x  c #90130B",
"c  c #A9A959",
"v  c #FF7464",
"b  c #FCB4AA",
"n  c #FFB4A4",
"m  c #500703",
"M  c #57B342",
"N  c #A9A947",
"B  c #342D21",
"V  c #B8B82A",
"C  c #BC1C0D",
"Z  c #58D23E",
"A  c #C3C332",
"S  c #144108",
"D  c #4912B1",
"F  c #BABA2A",
"G  c #170D29",
"H  c #DADA41",
"J  c #FF8374",
"K  c #E5695A",
"L  c #FEC1B3",
"P  c #4A13B4",
"I  c #57595B",
"U  c #E1E144",
"Y  c #C2C23A",
"T  c #939519",
"R  c #373A3A",
"E  c #38A91F",
"W  c #E8564A",
"Q  c #FB8B81",
"!  c #A91608",
"~  c #5DD942",
"^  c #4B1DA4",
"/  c #F8ABA3",
"(  c #D8D82D",
")  c #48BE2E",
"_  c #FF7C6D",
"`  c #FFA99A",
"'  c #2B0076",
"]  c #55CD3B",
"[  c #44AC2C",
"{  c #40450F",
"}  c #050304",
"|  c #F59E94",
" . c #C9C93A",
".. c #181A1A",
"X. c #B4B425",
"o. c #FFE8DC",
"O. c #45BD2A",
"+. c #FE6454",
"@. c #696B16",
"#. c #53B83D",
"$. c #292A2E",
"%. c #5623B7",
"&. c #674B9C",
"*. c #4DD82E",
"=. c #5A34A3",
"-. c #D6D63E",
";. c #FF6D5E",
":. c #232112",
">. c #E44132",
",. c #FF9D8D",
"<. c #BAB921",
"1. c #5018BC",
"2. c #84DD70",
"3. c #57D03C",
"4. c #B6B622",
"5. c #53C939",
"6. c #FF9484",
"7. c #DD3F31",
"8. c #EF4435",
"9. c #150202",
"0. c #C74337",
"q. c #54CB3A",
"w. c #BDBD27",
"e. c #C31F10",
"r. c #19063A",
"t. c #50C936",
"y. c #24182B",
"u. c #F58C7E",
"i. c #0A260A",
"p. c #5010CA",
"a. c #25065D",
"s. c #5014C2",
"d. c #A91D13",
"f. c #46C92A",
"g. c #55C13E",
"h. c #56CE3C",
"j. c #A5A52F",
"k. c #40BC25",
"l. c #BABA27",
"z. c #292C09",
"x. c #D2D23E",
"c. c #D2D23C",
"v. c #CFCF3C",
"b. c #0A1006",
"n. c #86443E",
"m. c #D14C40",
"M. c #1B0049",
"N. c #290202",
"B. c #4C0BC9",
"V. c #302E2F",
"C. c #3FB726",
"Z. c #460FAE",
"A. c #CA2515",
"S. c #BEBE2B",
"D. c #D52E20",
"F. c #420EA5",
"G. c #42B928",
"H. c #3D0503",
"J. c #12350E",
"K. c #3E06A8",
"L. c #BE1F10",
"P. c #C92B1D",
"I. c #F06454",
"U. c #5E21D4",
"Y. c #22140D",
"T. c #07001A",
"R. c #4C14B7",
"E. c #B0B02C",
"W. c #591FCA",
"Q. c #1F660C",
"!. c #0F0523",
"~. c #2F1D0C",
"^. c #B9B92A",
"/. c #FFA090",
"(. c #C72F22",
"). c #5C5841",
"_. c #4ED231",
"`. c #52D635",
"'. c #F5948A",
"]. c #BF1301",
"[. c #98CA8C",
"{. c #D1D241",
"}. c #60CC48",
"|. c #6FC35D",
" X c #6AD152",
".X c #9BE48B",
"XX c #195309",
"oX c #5519C8",
"OX c #571EC4",
"+X c #558450",
"@X c #2E261A",
"#X c #B8B722",
"$X c #5C4342",
"%X c #4B13B7",
"&X c #F36B5D",
"*X c #F9675A",
"=X c #6625E0",
"-X c #202829",
";X c #5DE73E",
":X c #213A2E",
">X c #293131",
",X c #5A6016",
"<X c #3F4142",
"1X c #7DD864",
"2X c #101313",
"3X c #47A530",
"4X c #4810B2",
"5X c #EB4839",
"6X c #D95548",
"7X c #612210",
"8X c #EC7768",
"9X c #6C48B2",
"0X c #BB5248",
"qX c #FFF5E9",
"wX c #777786",
"eX c #F0F052",
"rX c #51DC33",
"tX c #C6C747",
"yX c #48C72C",
"uX c #6021D8",
"iX c #44BB2A",
"pX c #47BC2D",
"aX c #C7C621",
"sX c #CFCE24",
"dX c #69BF56",
"fX c #BF7B75",
"gX c #F7776A",
"hX c #F68F84",
"jX c #46169F",
"kX c #61473F",
"lX c #111F10",
"zX c #152C1B",
"xX c #3E0F99",
"cX c #4B17A6",
"vX c #C12617",
"bX c #C3291B",
"nX c #AAAA71",
"mX c #7B56C0",
"MX c #E04A3D",
"NX c #75752D",
"BX c #83EB6B",
"VX c #8EE97B",
"CX c #92EA7F",
"ZX c #4F22A7",
"AX c #4D10C0",
"SX c #463D3C",
"DX c #5A2615",
"FX c #B61301",
"GX c #576C63",
"HX c #B51909",
"JX c #CE5449",
"KX c #7A6C6B",
"LX c #D45B50",
"PX c #4109AD",
"IX c #CE3022",
"UX c black",
"YX c None",
/* pixels */
"YXn.hX/ b | u.hX'.| / | I.I.&XgXK YX+X2.BXVXCXrXYXz 2..XYXYXYXYX",
"..m L qXo.o.+ + L b ` ,.p v 4 k s ~.J.1X;X*.*.`._.f.f.f.yXyXq YX",
"2XH.u.L n n ` /.6.p _ v +.k 0   A.~.h z ~ Z Z Z q.* * * * ) ) YX",
"..N.8X` /.,.6.p J _ v ;.4 8.0 D.w ~.h  X~ Z 3.3.t.* * * * * ) YX",
"R 9.K 6.p p J _ ;.;.;.+.4 >.  s w ~.h  X~ Z 3.h.t.* * * * * t YX",
"$.9.6XJ v +.4 *XQ 0Xe e 0.0 D.A.L.~.h }.~ 3.h.h.t.* * * * 2 t YX",
"I } m.v 4 8.k YXYXYXb.} 9.i s w C ~.h }.Z h.] h.t.* * * * * t YX",
"X } i k 0 0 fXYXYXYXYX<X2XY.8 s e.~.h - Z h.] ] q ) * * ) O.- YX",
"YXX e W 0.y ..-XV.SXKXYXYXYXkX7XDX:.h g.Z ] q.] q 2 ) ) ) iX- YX",
"YXYXYXYX..} >X: W MX(.C m.YXGXb.i.lXh g.3.q.q.q.q 2 ) pXpX2 #.YX",
"YX<XX ..} -Xn.5X>.>.>.  A.> X :XzXlXh g.h.q.5.q.q pXpXpXpXG.|.YX",
"YX2X$.R X $X5 >.7.7.7.7.  e.e : e :.h g.h.q.5.5.q pX) pXpXG.dXYX",
"YXb.n.LXJX5 7.7.7.      IXvXe.].FXY.J.[ O.G.C.C.C.C.iXO.2 k.M YX",
"YXb.y D.P.P.bXvXvXw L.L.L.L.w w C Y.i.E k.C.. . E E E [ [ 3X[.YX",
"YXI m e.L.C C C C C C HX! ! d.d.x Y.b.Q.Q.XXXXS J.i.lXX wXYXYXYX",
"YXR H.! x x y y m m H.N.N.9.Y.y.r.r.!.!.r.M.M.a.' ' ' ' o cX% YX",
"YX..} 9.} } b.b.j z.{ { ,X@.a T a y.a.o Z.Z.g AXs.p.p.p.p.p.B.oX",
"YX$.z.# f j.l tX{.H U 1 1 ( ( sXaXB !.r.% =XuXU.U.oXs.s.9 9 %X%.",
"YX$.{ eXO O O U U H H -.-.u w.<., B !.G ^ W.OXOXOX1.%X9 9 R.%X%.",
"YX$.z.3 c.7 7 7 7 x.x.c.7 u w.<., B !.G ^ W.OXOXOX1.%X%XR.R.%X%.",
"YXI j  .x.7 7 7 7 7 7 7 7 u w.<., B !.G ^ W.OX; OX1.%X%X%XR.g % ",
"YXV.j Y x.v.7 7 7 7 7 7 v.S.w.#X, B !.G ^ OX; ; ; 9 %X%X%XP g % ",
"YXYXj l x.$ $ v.v.v.v.v.$ S.r #X, B !.G ^ OX; ; ; R.P P P P g % ",
"YXYXb.l 7 3 $ $ $ $ $ $ $ S.l.4., B !.G ^ OX; ; 1.R.D D P P PXmX",
"YXYXb.@ 7 3 3 3 3 $ $ 3  .= l.4., B !.G jX9 P 4XZ.4XP P D D Z.=.",
"YXYX} j.7  . .A A A S.= = S.l.4., @XT.!.xX4XZ.Z.Z.Z.Z.D P D K.< ",
"YXYX2X# A F ^.^.^.^.^.F = = = r , @XT.!.xX4XZ.Z.Z.Z.Z.Z.Z.D PX9X",
"YXYXV.a S.V ^.^.F F F F F F = = S.).} !.xX4XZ.Z.Z.Z.6 PXK.F.^ YX",
"YXYXYX@.S.V V ^.^.^.^.^.= = r r u YXd T.xXg PXPXPXF.^ =.&.YXYXYX",
"YXYXYX@.= V V ^.F l.l.#XX.E.@ N c YXYXd o ZX=.&.< YXYXYXYXYXYXYX",
"YXYXYXNXr l.X.X.E.@ N & YXYXYXYXYXYXYXYXYXYXYXYXYXYXYXYXYXYXYXYX",
"YXYXYX& j.N c nXYXYXYXYXYXYXYXYXYXYXYXYXYXYXYXYXYXYXYXYXYXYXYXYX"
};
