/* XPM */
static char *p64[] = {
/* columns rows colors chars-per-pixel */
"64 64 257 2",
"   c #97972E",
".  c #5CD641",
"X  c #C1C12A",
"o  c #696C6C",
"O  c #9FE18E",
"+  c #1F6010",
"@  c #47BB2D",
"#  c #26095C",
"$  c #E84435",
"%  c #BABA25",
"&  c #4A13B3",
"*  c #3BB121",
"=  c #6AD153",
"-  c #2D2F2E",
";  c #FB5848",
":  c #FFB7A8",
">  c #380A8D",
",  c #E4E432",
"<  c #8E71C6",
"1  c #FFD3C5",
"2  c #CDCD3C",
"3  c #FFA99A",
"4  c #150B27",
"5  c #B51808",
"6  c #E53C2D",
"7  c #BB2113",
"8  c #B2B21E",
"9  c #68E24D",
"0  c #A6A629",
"q  c #FFECE6",
"w  c #4712AD",
"e  c #4F4F14",
"r  c #6BAB5D",
"t  c #86F16C",
"y  c #FFC6B8",
"u  c #CCCC3B",
"i  c #DE4234",
"p  c #FF796A",
"a  c #30300E",
"s  c #878721",
"d  c #858787",
"f  c #B8B82A",
"g  c #8DCF7B",
"h  c #440EAB",
"j  c #551DC1",
"k  c #48C02E",
"l  c #EAEA42",
"z  c #59D23E",
"x  c #4C13B8",
"c  c #78CC64",
"v  c #FF8373",
"b  c #48BD2E",
"n  c #F24839",
"m  c #686816",
"M  c #D9D825",
"N  c #FF7465",
"B  c #FE6A5B",
"V  c #48431C",
"C  c #D0D03C",
"Z  c #C22213",
"A  c #FAFA56",
"S  c #DADA48",
"D  c #451C94",
"F  c #BABA2A",
"G  c #8F1105",
"H  c #43210D",
"J  c #4BC330",
"K  c #730D04",
"L  c #56E537",
"P  c #B5B525",
"I  c #FE6353",
"U  c #F6F68F",
"Y  c #BDBD27",
"T  c #9F9F4E",
"R  c #C2554B",
"E  c #DB3B2D",
"W  c #90904F",
"Q  c #565553",
"!  c #C21B0A",
"~  c #FF9A8B",
"^  c #320D06",
"/  c #55CC3B",
"(  c #FD9F92",
")  c #FF8B7C",
"_  c #A9AEAD",
"`  c #5815D7",
"'  c #F78E82",
"]  c #142311",
"[  c #D2D23D",
"{  c #E9E953",
"}  c #54110A",
"|  c #050506",
" . c #450BB3",
".. c #37A21F",
"X. c #B4B429",
"o. c #FF9181",
"O. c #5A2FAC",
"+. c #7250B3",
"@. c #98A796",
"#. c #A6A66F",
"$. c #71504C",
"%. c #FFE3D9",
"&. c #54CB3A",
"*. c #C2C232",
"=. c #56CE3C",
"-. c #521ABF",
";. c #444243",
":. c #BBBB1F",
">. c #DB3223",
",. c #D12C1C",
"<. c #2D8519",
"1. c #4BB434",
"2. c #CBCB3A",
"3. c #A71608",
"4. c #F5F547",
"5. c #A97C78",
"6. c #C8C882",
"7. c #6528DA",
"8. c #512D95",
"9. c #E0736A",
"0. c #BEBE2C",
"q. c #7E6E9A",
"w. c #379522",
"e. c #AE3124",
"r. c #8E322A",
"t. c #CD3325",
"y. c #E25448",
"u. c #684F96",
"i. c #FAFA6C",
"p. c #6A6A48",
"a. c #B4B438",
"s. c #942217",
"d. c #A0A030",
"f. c #5A20C9",
"g. c #CD2819",
"h. c #6925EB",
"j. c #79E561",
"k. c #AB5E58",
"l. c #BB1E10",
"z. c #DD3E30",
"x. c #3D09A0",
"c. c #1D3E16",
"v. c #9458F7",
"b. c #D43A2C",
"n. c #D1766E",
"m. c #42CC24",
"M. c #D73121",
"N. c #FE9588",
"B. c #72211A",
"V. c #1F1D1E",
"C. c #53C939",
"Z. c #52DC33",
"A. c #C92415",
"S. c #E94D3F",
"D. c #77312C",
"F. c #453B58",
"G. c #D1D13E",
"H. c #573B35",
"J. c #4D494A",
"K. c #0B021D",
"L. c #57D03D",
"P. c #091107",
"I. c #7C7676",
"U. c #FF7E6F",
"Y. c #161F0C",
"T. c #BFBF3B",
"R. c #DFDF41",
"E. c #BABA27",
"W. c #0A2705",
"Q. c #571EC4",
"!. c #6639BA",
"~. c #F54E3E",
"^. c #4CDB2D",
"/. c #16160A",
"(. c #ABAB22",
"). c #190504",
"_. c #13370C",
"`. c #76761C",
"'. c #E9847B",
"]. c #591CCE",
"[. c #CFCF3C",
"{. c #914F4A",
"}. c #D3D335",
"|. c #BC6159",
" X c #4BCC2F",
".X c #B8B825",
"XX c #D62E1F",
"oX c #3A4240",
"OX c #4D0DC5",
"+X c #5415CB",
"@X c #631DE7",
"#X c #0D2512",
"$X c #C9C93E",
"%X c #ED6E63",
"&X c #41BB26",
"*X c #D4D43D",
"=X c #D33628",
"-X c #C72B1D",
";X c #58C042",
":X c #C8C834",
">X c #EE6A5F",
",X c #4F14BF",
"<X c #24163E",
"1X c #C12518",
"2X c #D6D63C",
"3X c #3EB524",
"4X c #42B829",
"5X c #460FAF",
"6X c #EA5C4F",
"7X c #FF6758",
"8X c #46BF2C",
"9X c #D2D23E",
"0X c #5ACA42",
"qX c #FE8677",
"wX c #5C17DF",
"eX c #BFBF27",
"rX c #FF6F61",
"tX c #D56156",
"yX c #C82F22",
"uX c #C98783",
"iX c #C43B30",
"pX c #7B4ED0",
"aX c #CECE26",
"sX c #46CF29",
"dX c #D88179",
"fX c #4F18B8",
"gX c #585E1C",
"hX c #510ED2",
"jX c #9684BB",
"kX c #7F6AA7",
"lX c #4FC735",
"zX c #AB2013",
"xX c #53D437",
"cX c #FC5141",
"vX c #636667",
"bX c #F47A6F",
"nX c #DF3727",
"mX c #96966E",
"MX c #55894D",
"NX c #10091F",
"BX c #40AF28",
"VX c #4BA936",
"CX c #123F09",
"ZX c #7E615F",
"AX c #F0857C",
"SX c #F0887F",
"DX c #B6B61F",
"FX c #F06456",
"GX c #F46D5F",
"HX c #BBBB2A",
"JX c #5A477F",
"KX c #FE5E4F",
"LX c #A792CF",
"PX c #F29088",
"IX c black",
"UX c black",
"YX c None",
/* pixels */
"YXYXYXR 6X%X%XbXAXPXSX>.YXnX$ $ S.6X>X%XAXPX( YXYXYXYXYXYXYXYXYXYXYXYXYXYXYXYXYXYXYXYXYXYXYXYXYXYXYXYXYXYXYXYXYXYXYXYXYXYXYXYXYX",
"YXvX).3.y q q q q %.q q 1 y : 3 3 ( ( ~ N.N.' qXU.N B I KX; cXcXn 6 p.MXgX+ = t L L L L L Z.^.^.Z.9 9 9 j.j.j.t O O . YXxXj.YXYX",
"J.IX| s.3 q q q q q %.%.%.%.%.%.%.1 1 1 y y : : 3 ~ ) v N B I ; ~.A.H W.W.CXO O L L L L Z.Z.Z.Z.^.sXm.m.m.m.m.m.m.m. X X X XYXYX",
";.IXIXs.qX1 1 1 1 y y y : : : 3 3 ( ~ o.) qXU.p N I cXcXn 6 6 nX>.! H #X] _.g t . . . . . . z z . lXJ J J J J J k k k k k 8Xg YX",
"o IXIXB.bXy y y y : : : : 3 3 3 ( ~ N.o.qXv U.p N I cXcXn 6 nXnXM.! H #X] _.g t . . . z z L.L.=.L.lXk k k k k k k k k k k 8XO YX",
"Q IXIXB.GX: : : : : 3 3 3 ( ( ~ N.o.) qXU.p N rXrXKX~.~.$ nXnX>.XX! H #X] _.g t . . z z z L.L.=.L.J k J k k k k k k k k k 8XYXYX",
"V.IXIXB.FX3 3 3 3 3 ( ( ~ ~ N.o.) qXv U.p N rXB 7X; n n 6 nX>.M.,.! H #X] c.c j.z . z z z L.=.=.L.J k J k k k k k k k k k b YXYX",
"Q IXIX} 6X~ ( ~ ~ ~ N.N.o.o.) qXv U.p p N rXB 7XI ; $ $ 6 >.M.XX,.! H #X] c.c j.z z z z L.L.=.=.L.J k k k k k k k k k k k b YXYX",
"I.IXIX} y.o.N.o.o.o.) ) qXqXv U.p p N rXB B 7XI KXcX$ 6 nXXX,.,.g.! H #X] c.c j.z z z L.L.L.=.=.L.J k k k k k k k k k k k b YXYX",
"YXIXIX} S.v ) ) qXqXqXv v U.U.p N N rXB 7XI KXKXKX~.6 6 nX,.,.g.g.! H #X] c.c 9 z z z L.L.L.=.=.L.J k k k k k k k k k k 8X@ YXYX",
"YXIXIX^ i p v U.U.U.N rXrXB B KX; ; ; KXI I KXKXKX~.nXnX>.,.g.g.A.! H #X] c.= 9 L.z z L.=.=./ =.=.J k k k k k k k k k k 8X1.YXYX",
"YX| IX^ iXrXp p p B cXcX~.~.~.bXPX~ n.B.B.B.B.D.D.i nXnXM.g.g.A.A.! H #X] c.= 9 L.z L.L.=.=./ =.=.J k k k k k k k k k b 8X1.YXYX",
"YX| IX^ iX7XN rXB ~.n n n $ >XYXYXYXYXJ.IXIXIXIXIX^ E >.XXA.A.A.Z ! H #X] c.= 9 L.L.L.L.=.=./ / =.J k k k k k k k k k b k 1.YXYX",
"YXP.IX).e.I rXB ~.$ $ $ 6 S.YXYXYXYXYXYX- IXIXIXIXIXD.nX,.A.A.Z Z ! H #X] c.= 9 L.L.=.=.=./ / / / k k k k k k k b k b b 8X;XYXYX",
"YXP.IX).e.KX7XS.6 i z.6 S.YXYXYXYXYXYXYXYXV.| IXIXIX| r.>.Z Z Z Z ! H #X] c.= 9 L.L.=.=.=./ / / / k k k k k k k k b b b &Xc YXYX",
"YXV.IX| s.$ S.E E E E nX|._ YX@.d YXYXYXYXYXYXQ - V.| IXs.g.A.A.Z ! H #X] c.0X. =.=.=.=./ / &./ / k k k k k b b b b b b &Xc YXYX",
"YXYXJ.IXK A.XXXXXX6 6 e.| IX| | IX| | - d YXYXYXYXYXYXQ - s.e.e.e.s.H #X] c.0X. =.=.=./ / / &./ &.k k k k k b b b b b b 3Xg YXYX",
"YXYXYXYXr.tX9.'.dXB.B.).P.- - J.Q Q Q Q $.$.ZX5.uXYXYXYX@.] Y.] ] ] ] ] ] c.0X. =.=./ / &.&.&./ &.k b b b b b b b b b b &Xc YXYX",
"YXYXYXYXYXYXYXYXvXIXIX| - - oX|.6Xy.y.S.t.1XZ ! ! n.YXYX_ ] Y.] ] ] ] ] ] c.;X. =./ / / &.&.C.&.&.k b b b b b b b b b @ b VXYXYX",
"YXYXYXYXYXYXYXd IXIX| V.- - {.n $ $ $ $ z.-XZ l.! 5 YXYXYX] Y.] ] ] ] ] ] c.;Xz / / / &.&.&.C.&.C.b b b b b b b b b b @ @ r YXYX",
"YXYXYXYX_ YXo | IXIXV.- - $.S.$ $ $ i i i i E -XZ 5 1XH.I.- Y.Y.Y.] ] ] ] c.;Xz &.&.&.&.&.C.C.&.C.b b b b b b b b @ @ @ @ g YXYX",
"YXo | IXIXIXIXIXIX/.- - J.y.$ i i i i i i i i i E -X! G V.oXoX- ] #X] ] ] c.;Xz &.&.&.&.&.C.C.&.C.b @ b b b b b @ @ @ @ @ O YXYX",
"YX- P./.P./.V.V.- - - ;.R $ i i i i i i z.z.z.z.z.=X1XA.e.ZXI.I.I.$.a ] ] c.;XL.&.&.&.&.C.C.C.&.C.b @ @ @ @ @ @ @ @ @ @ @ YXYXYX",
"YXQ IX;.o vXo o o vX;.{.$ i i i z.z.z.z.z.E E E z.=X1X1XA.1X1X7 Z Z H #X] c.;XL./ / &.&.&.C.C.&.lXb b @ @ @ @ @ @ @ @ @ @ YXYXYX",
"YXd IX).$.k.|.|.|.R R i z.z.z.z.z.z.z.z.z.z.z.E z.=XZ Z Z 5 5 5 5 5 H #XY.c.1.lXk k b b @ 4X4X4X4X4X4X@ @ @ @ @ @ @ @ @ @ YXYXYX",
"YXYXIXIX} b.6 6 z.z.z.i i z.z.z.z.E E b.=X=X=Xt.t.-X1X7 Z l.5 5 5 5 ^ P.P._...3X* * * * * * * * * * * * 3X4X@ @ b b @ @ @ YXYXYX",
"YXYX| IX} iXb.b.b.=X=Xt.t.yXyX-X-X1X1XZ 7 7 l.l.l.l.Z Z 1X1XZ l.5 5 ^ P.P._...3X* * * * * * * * * * * * * * * 3X3X4X4X* BXYXYXYX",
"YXYX- IX^ zX1X7 7 7 7 7 7 7 l.l.l.l.l.l.l.l.l.l.l.l.l.l.7 Z 1X1XZ Z H P.P._...3X* * * * * * * * * * ..........w.w.<.MXr @.YXYXYX",
"YXYXYX| ^ 3.7 7 7 7 7 7 7 7 7 7 7 l.l.l.l.l.l.5 5 5 l.l.l.l.Z Z Z Z H.] | W.w.* ....w.w.<.<.+ + + CX_.W.W.] Q YXYXYXYXYXYXYXYXYX",
"YXYXYX- ).3.l.l.l.l.l.l.l.5 5 5 5 5 5 5 5 5 5 5 5 5 3.3.3.zXs.G G K ).IX| P._.CX_.W.W.P.P.| IXIXIXIXIXIXIX| K.<XF.q.YXYXYXYXYXYX",
"YXYXd | ).G 5 5 5 5 5 5 5 5 3.3.3.3.G G G K K K } } ^ ^ ).H.J.4 # # 4 | IXIXIXIXIXIX| | K.K.K.4 4 # # # # # > > > > > O.+.YXYXYX",
"YXYXQ IX).K G G G G K K K } } ^ ^ ^ ).).| IXIXIXIXIXIXIXIX| V.NXNX4 # # <X4 4 # # # # > > > > > > x.x.> > > > > > > x.x.x.5XpXYX",
"YXYXo IX| ).).).).| | | IXIXIXIXIXIXIXIX| P././.Y.a a V e gXm `.gXV.4 <X# > x.x.x.x.x.x.x.x.x.x.x.x.h  . .OXOXhXhX` ` ` ` ` hX].",
"YXYXV.IX| IXIXIXIXIXIX| P./.Y.a a V e gXm `.s s   0 (.DXeXaXaXM M eX- NX4 <X> x.x. .5X,X+X` ` wX@Xh.@XwXwXwX` ` +X+X+X,X,X,X,XfX",
"YXYXJ.IXP.a V e e gXm `.s s d.(.P X :X}.R., , l l 4., , , , M aXaXM V K.4 4 4 # !.v.h.h.h.h.h.7.7.7.].,X,X,X,Xx x x x x x x x O.",
"YXYXI.IXP.s E.X aXaXS { { 4.i.A A A A A A 4.l l R.R.:XX X X Y DXDX:.V K.4 4 4 4 8.7.f.f.f.Q.Q.Q.j f.-.x x x x x x x x x x x x !.",
"YXYXYXIXIXs 4.i.i.i.U U U { { R.R.S S 2X2X*X*X[ *X[ X Y eXX Y DXDX:.V K.4 4 4 4 D f.Q.Q.Q.Q.Q.Q.Q.Q.-.x x x x x x x x x x x  .!.",
"YXYXYXIXIX`.R.S S S 2X}.}.[ [ [ [ [ [ [ [ [ [ [ *X[ X Y eXX Y DXDX:.V K.4 4 4 4 D f.Q.Q.Q.Q.Q.Q.Q.Q.-.x x x x x x x x x x x x O.",
"YXYXYX| IXgXG.G.G.G.G.9X9X9X9X9X[ [ [ [ [ [ [ [ *X[ X Y Y eXY DXDX:.V K.4 4 4 4 D f.Q.Q.Q.Q.Q.Q.Q.Q.-.x x x x x x x x x x x x fX",
"YXYXYX| IXe 2 G.G.G.G.9X9XG.9X[ [ [ [ [ [ [ [ [ [ [ X Y Y eX% DXDX:.V K.4 4 4 4 D f.Q.Q.Q.Q.Q.j j Q.-.x x x x x x x x x x x  .!.",
"YXYXYXP.IXe $XG.C G.G.G.G.G.G.G.G.[ G.[ [ G.[ G.[ [ X Y Y eX% DXDX:.V K.4 4 4 4 D f.Q.Q.Q.j j j j Q.-.x x x x x x x x x x x  .+.",
"YXYXYXP.IXV $XG.C C C C C G.G.G.G.G.G.G.G.G.G.G.G.G.X Y Y Y % 8 DX:.V K.4 4 4 4 D f.Q.Q.Q.j j j j Q.fX& x x x x x x x x x &  .< ",
"YXYXYXP.IXa T.C [.C C [.[.C C C C C C G.G.G.C G.G.G.X % Y Y % 8 DX:.V K.4 4 4 4 D f.j Q.j j j j j Q.fX& x x x x x x x & & &  .< ",
"YXYXYXV.IXa T.C [.[.[.[.[.C C C C C C C [.[.C C C G.X % Y Y % 8 8 :.V K.4 4 4 4 D f.j j j j j j j Q.fX& & x x & & & & & & & & O.",
"YXYXYX- IXa a.[.2 2 2 [.[.[.[.[.[.[.[.[.[.[.[.[.C C X % Y Y % 8 8 :.V K.4 4 NX4 D Q.j j j j j j j j fX& & & & & & & & & & & & +.",
"YXYXYX;.IXY.a.[.2 2 2 2 2 2 2 2 2 2 2 [.[.[.[.2 2 [.X % E.Y % 8 8 :.V K.4 4 NX4 D Q.j j j j j j j j x & & & & & & & & & & & & < ",
"YXYXYX- IXY.a.2 2 2 2 2 2 2 2 2 2 2 2 2 2 2 2 2 2 2 0.% E.E..X8 8 DXV K.4 4 NX4 D Q.j j j j j j j Q.fX& & & & & & & & & & & 5XLX",
"YXYXYXV.IX/.d.2 2 2 2 2 2 2 2 2 2 2 2 2 2 2 2 2 2 2 0.% E.E..X8 8 DXV K.NX4 NX4 D Q.j j j j j -.fXfXx & & & & & & & & & & w 5XYX",
"YXYXYX;.IXP.  2 u u u u u u u u u u u 2 2 2 2 2 2 [.0..X% E..X8 8 DXV K.4 4 4 4 D Q.-.fXx & & 5X5X5X5X& x & & & & & & & & & w YX",
"YXYXYXvXIX|   u 2.2.2.2.2.2.u u 2 2 2 2 2 2 2 2.:X:X0.% % E..X8 8 DXV K.NXNXNX4 > & 5X5X5X5X5X5X5X5X5X5X& & & & & & & & & w & YX",
"YXYXYXQ IX| s u 2.2.2.u 2 2 2 2 u 2.:X:X*.*.0.0.HXHX0.0..X% .X8 8 DXV K.K.K.K.NX> & 5X5X5X5X5X5X5X5X5X5X5X5X& & & w w w w w w YX",
"YXYXYX- IXIX`.2 2 u u 2.:X:X*.*.0.HXF F F F HXHXHXHXHX0.HX.XE.P 8 DXV K.K.K.K.NX> & 5X5X5X5X5X5X5X5X5X5X5Xh 5X& & & w w w 5Xw YX",
"YXYXYXYX| IXm *.*.0.HXHXf f f f F F F F F HXHXHXHXHXHXHX0.HX.XE.P DXV K.K.K.K.4 > & 5X5X5X5X5X5X5X5X5X5X5X5Xh h 5X& & w w 5XD YX",
"YXYXYXYXV.IXe X.f f f f f f f F F F F F F F F HXHXHXHXHXHX0.F .XE.% V K.K.K.K.4 > & 5X5X5X5X5X5X5X5X5X5X5X5Xh h h h w & & 5XD YX",
"YXYXYXYX;.IXe X.f f f f f f f f F F F F F F F F HXF HXF F HX0.f .XX p.K.K.K.K.4 > & 5X5X5X5X5X5X5X5X5X5Xh h h h h h h w &  .O.YX",
"YXYXYXYXvXIXV X.f f f f f f f f f f f F F F F F F F F F F F HXHX.XY 6.F.| K.K.4 > & 5X5X5X5X5X5X5X5X5X5Xh 5Xh h h h x.x.x.D jXYX",
"YXYXYXYXYXNXa (.f f f f f f f f f f f f f f F F F F F F F F F HXHX% YXYX<XK.K.4 > & w 5X5X5X5X5X5X5X5X5Xh x.h x.D 8.8.u.q.YXYXYX",
"YXYXYXYXYX- a 0 f f f f f f f f f f f f f f f F F F F F F F F HXHXX 6.YXYXI.| 4 > w w w w 5X5X5Xh x.x.x.D u.JXYXYXYXYXYXYXYXYXYX",
"YXYXYXYXYXvXY.0 f f f f f f f f f f f f f f f f f F HXHXHX.X8 (.(.0 YXYXYXYX;.K.> 5X5Xh x.x.h > 8.kXq.YXYXYXYXYXYXYXYXYXYXYXYXYX",
"YXYXYXYXYXYXY.d.f f f f f f f f f f f f f F F E.P P (.0 d.T T #.YXYXYXYXYXYXYXF.> w D O.u.u.YXYXYXYXYXYXYXYXYXYXYXYXYXYXYXYXYXYX",
"YXYXYXYXYXYXa   f f f f f f f f f f f .XP (.0 d.T W W YXYXYXYXYXYXYXYXYXYXYXYXYXJXq.YXYXYXYXYXYXYXYXYXYXYXYXYXYXYXYXYXYXYXYXYXYX",
"YXYXYXYXYXYXp.s f f f f f f P (.(.0 d.d.T W mXYXYXYXYXYXYXYXYXYXYXYXYXYXYXYXYXYXYXYXYXYXYXYXYXYXYXYXYXYXYXYXYXYXYXYXYXYXYXYXYXYX",
"YXYXYXYXYXYXYXs f P (.(.0     #.#.YXYXYXYXYXYXYXYXYXYXYXYXYXYXYXYXYXYXYXYXYXYXYXYXYXYXYXYXYXYXYXYXYXYXYXYXYXYXYXYXYXYXYXYXYXYXYX",
"YXYXYXYXYXYXYXs     T #.YXYXYXYXYXYXYXYXYXYXYXYXYXYXYXYXYXYXYXYXYXYXYXYXYXYXYXYXYXYXYXYXYXYXYXYXYXYXYXYXYXYXYXYXYXYXYXYXYXYXYXYX"
};
