/* XPM */
static char *p48[] = {
/* columns rows colors chars-per-pixel */
"48 48 257 2",
"   c #226712",
".  c #49C12E",
"X  c #FFB7A7",
"o  c #140C23",
"O  c #87EE6E",
"+  c #2C302D",
"@  c #8D8E8E",
"#  c #11220F",
"$  c #F2F26C",
"%  c #656519",
"&  c #3D832D",
"*  c #380990",
"=  c #CB574C",
"-  c #A9A928",
";  c #FFC5B6",
":  c #8A891A",
">  c #3BB221",
",  c #979624",
"<  c #BB2012",
"1  c #440DAB",
"2  c #FFD5C9",
"3  c #B81808",
"4  c #73EB58",
"5  c #64DE4A",
"6  c #438234",
"7  c #DE4032",
"8  c #883831",
"9  c #911707",
"0  c #CDCD3C",
"q  c #4C4D12",
"w  c #E33A2B",
"e  c #FF5A4C",
"r  c #CECE3B",
"t  c #592AB1",
"y  c #E9E948",
"u  c #5BD541",
"i  c #263A0C",
"p  c #551DC1",
"a  c #F64A3B",
"s  c #47BD2E",
"d  c #B5B51F",
"f  c #686A6A",
"g  c #575759",
"h  c #FF7D6D",
"j  c #DCDC45",
"k  c #BABA2A",
"l  c #FF9383",
"z  c #4D14B9",
"x  c #FF6E5E",
"c  c #741004",
"v  c #C0190A",
"b  c #48BF2E",
"n  c #B8B82A",
"m  c #C9C935",
"M  c #664E4B",
"N  c #5816D5",
"B  c #FF8273",
"V  c #FFE1D8",
"C  c #ABF598",
"Z  c #D0D03C",
"A  c #B4706B",
"S  c #F5F54C",
"D  c #2D8B18",
"F  c #FE6152",
"G  c #451A96",
"H  c #D72819",
"J  c #FFF8F3",
"K  c #57D13D",
"L  c #C2C231",
"P  c #9CF185",
"I  c #8B6EBF",
"U  c #A12E1E",
"Y  c #FF8D7D",
"T  c #470DB5",
"R  c #B9B926",
"E  c #922417",
"W  c #EA584A",
"Q  c #4610AD",
"!  c #58D33E",
"~  c #B1B122",
"^  c #4AC42F",
"/  c #2F0704",
"(  c #BABA1F",
")  c #FFA292",
"_  c #55CC3B",
"`  c #5A359E",
"'  c #E94132",
"]  c #F26E62",
"[  c #6C43BC",
"{  c #A4A432",
"}  c #E34234",
"|  c #BCBC27",
" . c #ECEC60",
".. c #9F5650",
"X. c #DC3B2D",
"o. c #747420",
"O. c #BEBE27",
"+. c #C2C22D",
"@. c #4A11B5",
"#. c #D2D23D",
"$. c #FFAC9C",
"%. c #EE6B5F",
"&. c #4E0E0B",
"*. c #54E635",
"=. c #56CE3C",
"-. c #300D72",
";. c #4912B1",
":. c #C22315",
">. c #060605",
",. c #A8A86E",
"<. c #FF7263",
"1. c #4CB935",
"2. c #4CDC2D",
"3. c #521CBB",
"4. c #FF9B8B",
"5. c #CD2111",
"6. c #5ABC44",
"7. c #CC3124",
"8. c #F9F95E",
"9. c #7F61BC",
"0. c #54CA3A",
"q. c #BDBD2C",
"w. c #6829DB",
"e. c #D7D728",
"r. c #474C49",
"t. c #752A24",
"y. c #D6D63F",
"u. c #5F22D3",
"i. c #3F9D2B",
"p. c #A5A557",
"a. c #3F08A5",
"s. c #6D549D",
"d. c #C32A1C",
"f. c #DCDC38",
"g. c #91C784",
"h. c #AB1607",
"j. c #061703",
"k. c #21084F",
"l. c #D23426",
"z. c #D1D13B",
"x. c #CDCD2D",
"c. c #51D734",
"v. c #DB3424",
"b. c #6336BA",
"n. c #F4847B",
"m. c #818122",
"M. c #DC3E30",
"N. c #C6C638",
"B. c #6BBE59",
"V. c #CB2B1D",
"C. c #BC1E0F",
"Z. c #52C939",
"A. c #A43F36",
"S. c gray12",
"D. c #C6C64D",
"F. c #FFF1EB",
"G. c #5414CD",
"H. c #B4B42A",
"J. c #0B021A",
"K. c #B8B920",
"L. c #1C1D07",
"P. c #4DD530",
"I. c #17033B",
"U. c #170404",
"Y. c #D1D13D",
"T. c #31092C",
"R. c #BABA29",
"E. c #B7B725",
"W. c #5BDA3F",
"Q. c #3AA722",
"!. c #571EC5",
"~. c #0D0F0E",
"^. c #44BA2A",
"/. c #C8C83D",
"(. c #4A14B1",
"). c #3FB625",
"_. c #EF4A3B",
"`. c #CBCB3B",
"'. c #D63A2C",
"]. c #43B82A",
"[. c #DD3728",
"{. c #5015C2",
"}. c #5A1FCA",
"|. c #3A3C3B",
" X c #46BC2C",
".X c #460FAF",
"XX c #4D15B8",
"oX c #D3D33D",
"OX c #43BF29",
"+X c #F49088",
"@X c #F0756B",
"#X c #4A13B4",
"$X c #D52F20",
"%X c #100525",
"&X c #4B13B7",
"*X c #51C837",
"=X c #FF6858",
"-X c #C23E32",
";X c #F8978E",
":X c #EA301F",
">X c #9B9B5B",
",X c #71433F",
"<X c #E48981",
"1X c #F58D85",
"2X c #F05E4F",
"3X c #BEEFB3",
"4X c #540E31",
"5X c #641C12",
"6X c #747878",
"7X c #842C1F",
"8X c #4FC535",
"9X c #510DD3",
"0X c #F68071",
"qX c #596364",
"wX c #FF8677",
"eX c #EC6255",
"rX c #413C4F",
"tX c #F37F78",
"yX c #53B23F",
"uX c #F47267",
"iX c #E4E424",
"pX c #FF7769",
"aX c #78827A",
"sX c #611FE0",
"dX c #7B54C3",
"fX c #918F20",
"gX c #F95142",
"hX c #9A9A3F",
"jX c #D26E67",
"kX c #4F465E",
"lX c #534342",
"zX c #86CB77",
"xX c #C12618",
"cX c #78D664",
"vX c #CC2617",
"bX c #BFBF4E",
"nX c #BCBD1F",
"mX c #D64A3E",
"MX c #A895CF",
"NX c #ED4536",
"BX c #CFCF27",
"VX c #D13629",
"CX c #B9B92E",
"ZX c #3EBA23",
"AX c #5F5E5E",
"SX c #C1C020",
"DX c #B9B931",
"FX c #5C3E94",
"GX c #4C0DC3",
"HX c #7862A1",
"JX c #6A7766",
"KX c #6D7677",
"LX c #EF7D73",
"PX c #A2A241",
"IX c black",
"UX c black",
"YX c None",
/* pixels */
"YXYXA.uXn.n.1X+X%.W 2X2XeX] @Xn.+X@X:Xw _.W %.LXtXYXYXYXYXO O P C 3XYXYXYXYXYXYXYXYXYXYXYXYXYXYX",
"AXIXc ; J J F.F.J F.F.V V V 2 2 ; ; X ) l h x F a U i i & C *.*.*.2.2.2.2.2.P.P.c.c.c.c.P.P.cXYX",
"S.IX5Xl V 2 2 2 ; ; ; X X $.) 4.Y wXh =Xe gXNX' v.9 # # 6 P W.W.W.W.! ! ! ^ ^ ^ ^ ^ . . . . 6.YX",
"+ IX&.0X; ; ; X X $.$.) 4.l Y wXh pXx e gXNXw [.H 9 # # 6 O W.u ! ! =.=.=.^ . . . . . b b OXB.YX",
"S.IX&.] X $.$.$.) ) 4.l l wXB h pXx =XgX_.' v.v.H 9 # # 6 O u u ! K K K =.^ . . . . . . . b 6.YX",
"+ IX&.eX) ) 4.4.l l Y Y wXh pX<.x =XF a NXw $X$XH 9 # # 6 O u ! ! K =.=.=.. . . . . . . b . yXYX",
"g IX/ W l l l Y Y wXB B h pX<.x =XF e NX' [.$XV.vX9 # # 6 4 ! ! K K =.=._ . . . . . . . b OXB.YX",
"g IX/ mXwXB B B h pXpXx F F =X=XF F e ' w v.V.vX5.9 # # 6 4 ! K K K =.=._ . . b b b b b b ZXzXYX",
"+ IXU.-XpXpXpXF gXgXa ] ;X<X7Xt.t.t.A.' [.$XvXvX5.9 # # & 4 K K K =.=.=._ . b b b b b b b ZXg.YX",
"f IXU.-Xx <.F _._.' W YXYXYXf IXIXIXIX7Xw $XvX:.5.9 # # & 4 K K =.=._ =.0.b b b b b b b b s yXYX",
"YXIX>.-X=XF NX' ' _.YXYXYXYXYXg IXIXIX>.U $X:.:.5.9 # # & 5 K =.=._ _ _ 0.b b b b b b b b b B.YX",
"YX~.IXE _.} X.w [.A YXYX@ YXYXYXYXr.+ ~.~.E H 5.5.9 # # & 5 =.=.=._ 0._ Z.b b b b b b b s s g.YX",
"YXYXS.c $X[.X.w U >.~.~.~.# + KXYXYXYXYXYXM 7X7X7X5X# # & 5 =.=._ _ 0._ *Xb b b b b b b s  XYXYX",
"YXYXYXYXYXYX../ U.S.+ M ......8 A.A.jXYXYXaX# # # # # # & 5 =._ _ _ 0._ *Xs s b b b b s s s YXYX",
"YXYXYXYXYXYX~.IX~.+ lXmXa _.NX[.5.v v = YXYXj.# # # # # & u =._ _ 0.0._ 8X Xs s s s s s s s YXYX",
"YXYXAX6Xg ~.IX~.+ |.= NX} } } } 7 l.:.v 7Xr.# # # # # # & u _ _ 0.0.0.0.8X Xs s s s s s  X1.YXYX",
"YXS.IXIXIXIX~.+ |...NX} } } 7 7 7 7 M.V.v t.qXAXr.+ # # & u _ 0.0.0.Z.0.8X Xs s s s s s ^.1.YXYX",
"YXS.S.g g AXAXr.,X} 7 7 7 7 7 M.M.M.X.V.:.d.A.A.-X7X# # & u _ _ 0.0.Z.0.8X Xs  X X X X X X1.YXYX",
"YX|.IX,X= = = = mX7 7 7 7 M.M.M.M.X.'.V.:.C.3 3 v c # # & ^  X^.^.].).).).).]. Xs s s  X X1.YXYX",
"YX+ IX5XM.M.X.X.'.'.VXVX7.7.V.V.d.xXxX:.:.:.< 3 v c j.j.  ).> > > > > > > > > ).).).^. XZX6.YXYX",
"YXf IX&.xXd.xXxX:.< < < < < C.C.C.C.C.C.C.:.xX:.5.E j.j.  ZX).).).).> > > > Q.Q.Q.i.i.i.i.g.YXYX",
"YXYX+ / < < < < < < < < < C.C.C.C.C.v v C.C.v C.v 7X# >.  Q.D D D       i i # # + JXYXYXYXYXYXYX",
"YXYX|./ h.C.3 3 3 3 3 3 h.h.h.h.9 9 c c c 5X8 &.4XT.IXIX>.j.j.>.>.>.>.J.J.%X%XI.I.k.-.` I YXYXYX",
"YX@ IX/ 9 9 9 c c c &.&.&./ / U.U.IXIXIXIXIXS.o %Xk.k.I.I.I.k.k.-.-.-.* * * * * * * * * * Q b.YX",
"YXYXIX>.U.U.>.IXIXIXIXIXIX>.>.~.L.L.i i q q % m.% S.I.-.* a.a.a.a.a.a.a.1 @.T GXGXG.G.N N N 9XG.",
"YXYX>.>.L.L.L.i i q q % o.m., - H.+.x.x.BXe.e.e.iX, o o k.-.t u.N sXsXsXsXsXN N G.G.{.{.{.z z 3.",
"YXYX>.L., CXN.r y.y  .8.S 8.S S S y y f.x.x.+.( SX, o o o o t w.u.u.}.}.!.!.z z z z z z z z &Xt ",
"YXYX>.>.N.8.$ $ $  .y j j j y.y.oXoXy.m | O.| d nXfXo o o o G }.!.!.!.!.!.!.z z z z z z z z @.b.",
"YXYX>.>.{ j oX#.z.z.z.#.#.#.#.oXoXoXy.m O.O.O.d nXfXo o o o G }.!.!.!.!.!.!.z z z z z z z z &X3.",
"YXYXS.IX, y.Y.Y.Y.Y.Y.#.#.#.#.oXoXoXy.m | O.O.d nXfXo o o o G }.!.!.!.p p p z z &X&X&Xz z &X@.t ",
"YXYX|.IXfXy.Y.Y.Z Y.Y.Y.Y.#.#.#.#.#.oXm | O.| d nXfXo o o o G }.!.!.p p !.p &X&X&X&X&X&X&X&XT [ ",
"YXYX+ IXm.y.Z Z Z Z Y.Y.Y.Y.z.z.z.z.oXm | O.| d ( fXo o o o G }.!.p p p p p &X&X&X&X&X&X&X#XT dX",
"YXYXS.IXo.y.Z Z Z Z Z Z Z Z Z Z Z Z Y.m | | | d ( fXo o o o G }.p p p p p p &X&X&X&X&X#X#X#XT t ",
"YXYXAXIXo.y.Z r r Z Z Z Z Z Z r r r z.m | | | d ( fXo o o o G !.p p p p p 3.@.@.#X#X#X#X#X#XT b.",
"YXYXg IX% oXr r r r r r r r r r r r Z m R | R ~ K.fXo o o o G !.p p p p p 3.#X#X#X#X#X#X#X#Xa.9.",
"YXYX+ IX% Y.r 0 0 0 0 0 r r r r r r Z m R R.R ~ K.fXo o o o G !.p p p 3.3.3.#X#X;.;.#X#X(.(.a.I ",
"YXYXf IXq r `.`.`.`.`.`.0 0 0 r r r r m R R R ~ d fXo o o o G 3.XXXX#X.X.X.X#X#X#X;.;.;.;.;.;.` ",
"YXYXYXIXq `.`.`.0 0 0 0 0 0 `.m m L +.q.q.R R ~ d fXo J.J.%X* T .X.X.X.X.X.X.X.X#X(.(.;.;.;.;.9.",
"YXYXYXIXq /.0 0 `.N.N.L L q.q.k R.R.R.k q.R.R E.d fXJ.J.J.%X* @..X.X.X.X.X.X.X.XQ ;.(.(.;.Q Q MX",
"YXYXYXIXi DXL q.k k R.R.R.k k k k k k k q.q.R R | : J.J.J.%X* @..X.X.X.X.X.X.XQ Q Q Q (.(.Q Q YX",
"YXYXYX+ L.- R.n k k k k k k k k k k k k k k q.R | , o J.J.%X* @..X.X.X.XQ .XQ Q Q Q 1 Q ;.;.Q YX",
"YXYXYXg L.- k n n k k k k k k k k k k k k k q.q.K.D.g IXJ.%X* @..X.XQ Q Q Q Q Q Q 1 a.a.a.G ` YX",
"YXYXYXYXL., k n n n k k k k k k k k k k k k k q.| D.YXrXJ.%X* ;.Q Q Q .X.X1 a.a.1 G ` FXYXYXYXYX",
"YXYXYXYX+ , k n n n n k k k k k k k k k | | R d E.bXYXYXg J.* @.1 a.a.Q G G FXs.YXYXYXYXYXYXYXYX",
"YXYXYXYX|.: k n n n n n n k k k R.R ~ ~ - { p.,.YXYXYXYXYXkX-.G ` s.HXYXYXYXYXYXYXYXYXYXYXYXYXYX",
"YXYXYXYXf m.k n n n k k R ~ ~ - { hX>XYXYXYXYXYXYXYXYXYXYXYXYXYXYXYXYXYXYXYXYXYXYXYXYXYXYXYXYXYX",
"YXYXYXYXYXm.R.n ~ ~ - { PXp.,.YXYXYXYXYXYXYXYXYXYXYXYXYXYXYXYXYXYXYXYXYXYXYXYXYXYXYXYXYXYXYXYXYX",
"YXYXYXYXYXm.{ PXp.>XYXYXYXYXYXYXYXYXYXYXYXYXYXYXYXYXYXYXYXYXYXYXYXYXYXYXYXYXYXYXYXYXYXYXYXYXYXYX"
};
